# xmcd
#
# Track frame offsets: 
#        150
#        18975
#        37205
#        54769
#        72754
#        90768
#        108674
#        127686
#        145275
#        163042
#        180635
#        198398
#        216379
#        234298
#        252064
#
# Disc length: 3607 seconds
#
# Revision: 0
# Processed by: cddbd v1.5.2PL0 Copyright (c) Steve Scherf et al.
# Submitted via: ExactAudioCopy v1.0b1
#
DISCID=c40e150f
DTITLE=Jason Dean and Mike Davey - Live in Armidale 2002
DYEAR=2002
DGENRE=Country
TTITLE0=Dancing On A Saturday Night
TTITLE1=Amie
TTITLE2=Hey Little Devil
TTITLE3=Temptation Eyes
TTITLE4=Rockin' All Over The World
TTITLE5=Play Me Some Rag
TTITLE6=I Have To Say I Love You In A Song
TTITLE7=Green Green
TTITLE8=From Me To You
TTITLE9=Do Wah Diddy
TTITLE10=Long Train Running
TTITLE11=Morning Sky
TTITLE12=California Dreaming
TTITLE13=Black Velvet (Mike)
TTITLE14=Don't Worry Be Happy (Jason)
EXTD=
EXTT0=
EXTT1=
EXTT2=
EXTT3=
EXTT4=
EXTT5=
EXTT6=
EXTT7=
EXTT8=
EXTT9=
EXTT10=
EXTT11=
EXTT12=
EXTT13=
EXTT14=
PLAYORDER=
